<?xml version="1.0" encoding="UTF-8" standalone="no"?>
<!-- Created with Inkscape (http://www.inkscape.org/) -->

<svg
   xmlns:dc="http://purl.org/dc/elements/1.1/"
   xmlns:cc="http://creativecommons.org/ns#"
   xmlns:rdf="http://www.w3.org/1999/02/22-rdf-syntax-ns#"
   xmlns:svg="http://www.w3.org/2000/svg"
   xmlns="http://www.w3.org/2000/svg"
   xmlns:inkscape="http://www.inkscape.org/namespaces/inkscape"
   version="1.1"
   width="281.98376"
   height="72.825874"
   id="svg2"
   xml:space="preserve"><metadata
     id="metadata8"><rdf:RDF><cc:Work
         rdf:about=""><dc:format>image/svg+xml</dc:format><dc:type
           rdf:resource="http://purl.org/dc/dcmitype/StillImage" /></cc:Work></rdf:RDF></metadata><defs
     id="defs6"><clipPath
       id="clipPath16"><path
         d="m 0,58.261 225.587,0 L 225.587,0 0,0 0,58.261 z"
         inkscape:connector-curvature="0"
         id="path18" /></clipPath></defs><g
     transform="matrix(1.25,0,0,-1.25,0,72.825875)"
     id="g10"><g
       id="g12"><g
         clip-path="url(#clipPath16)"
         id="g14"><g
           transform="translate(36.0068,57.4453)"
           id="g20"><path
             d="m 0,0 c -2.204,0.533 -4.508,0.815 -6.876,0.815 -16.089,0 -29.131,-13.042 -29.131,-29.13 0,-16.089 13.042,-29.13 29.131,-29.13 2.368,0 4.672,0.282 6.876,0.816 L 0,0 z"
             inkscape:connector-curvature="0"
             id="path22"
             style="fill:#74cae6;fill-opacity:1;fill-rule:evenodd;stroke:none" /></g><g
           transform="translate(75.1992,18.0029)"
           id="g24"><path
             d="m 0,0 0,-18.003 -18.003,0 c -9.943,0 -18.005,8.063 -18.005,18.003 0,9.944 8.062,18.005 18.005,18.005 C -8.06,18.005 0,9.944 0,0"
             inkscape:connector-curvature="0"
             id="path26"
             style="fill:#74cae6;fill-opacity:1;fill-rule:evenodd;stroke:none" /></g><g
           transform="translate(133.1924,0)"
           id="g28"><path
             d="m 0,0 c 0,19.886 -8.062,36.008 -18.007,36.008 -3.278,0 -6.351,-1.755 -9.002,-4.819 -2.646,3.064 -5.721,4.819 -9.001,4.819 -9.943,0 -18.003,-16.122 -18.003,-36.008 L 0,0 z"
             inkscape:connector-curvature="0"
             id="path30"
             style="fill:#74cae6;fill-opacity:1;fill-rule:evenodd;stroke:none" /></g><g
           transform="translate(161.5215,42.8848)"
           id="g32"><path
             d="m 0,0 0,-24.881 -18.004,0 c 0,-9.942 8.061,-18.003 18.004,-18.003 9.943,0 18.003,8.061 18.003,18.003 l 0,40.257 L 0,0 z"
             inkscape:connector-curvature="0"
             id="path34"
             style="fill:#74cae6;fill-opacity:1;fill-rule:nonzero;stroke:none" /></g><g
           transform="translate(225.5869,57.4453)"
           id="g36"><path
             d="m 0,0 c -2.205,0.533 -4.508,0.815 -6.876,0.815 -16.086,0 -29.13,-13.042 -29.13,-29.13 0,-16.089 13.044,-29.13 29.13,-29.13 2.368,0 4.671,0.282 6.876,0.816 L 0,0 z"
             inkscape:connector-curvature="0"
             id="path38"
             style="fill:#74cae6;fill-opacity:1;fill-rule:evenodd;stroke:none" /></g></g></g></g></svg>